<?xml version="1.0" encoding="UTF-8"?><svg xmlns="http://www.w3.org/2000/svg" xmlns:xlink="http://www.w3.org/1999/xlink" viewBox="0 0 48 48" version="1.1"><g id="surface1"><path d="M13.434 18l.066 10H15V18z" fill="#212121"/><path d="M32 18v10.004h1.805s.015-3.61.035-3.606c.02 0 2.691 3.743 2.715 3.73.027-.007 1.601-.573 1.601-.589 0-.012-2.683-3.441-2.683-3.445 0-.008 2.25-2.512 2.23-2.532-.062-.058-1.281-.585-1.316-.566-.016.012-2.582 2.797-2.582 2.797V18z" fill="#212121"/><path d="M2.098 21.05c-.649.137-1.258.552-1.508 1.032-.23.438-.227 1.043.008 1.488.16.309.625.739 1.347 1.246.782.555 1.078.832 1.153 1.094.113.387-.059.75-.434.93-.187.09-.27.101-.602.086-.433-.02-.73-.13-1.171-.446-.141-.097-.27-.168-.286-.152-.015.016-.156.227-.312.469l-.281.433.105.082c.063.043.25.157.422.254 1.188.66 2.945.555 3.836-.23.477-.418.7-1.023.602-1.645-.086-.582-.407-.964-1.415-1.695-.792-.574-1.167-.89-1.253-1.058-.168-.329-.051-.645.304-.829.18-.093.254-.101.61-.086.347.012.453.04.742.176l.336.164.261-.41c.145-.226.25-.426.239-.445-.047-.07-.598-.301-.942-.39-.457-.122-1.34-.157-1.761-.067z" fill="#212121"/><path d="M10.031 21.934c.79.37 1.211 1.53 1.04 2.851-.06.469-.227 1.035-.383 1.297-.157.27-.461.563-.704.676-.445.21-1.105.129-1.523-.188-.578-.441-.895-1.523-.774-2.648.114-1.031.485-1.684 1.133-1.985.336-.156.88-.156 1.211-.003zm-.719-1.149c-.472.106-.847.317-1.253.703l-.368.352V21H6v10h1.691v-4.078l.325.316c.593.582 1.289.817 2.101.703.531-.074.906-.21 1.301-.476 1.11-.742 1.723-2.223 1.555-3.77-.16-1.468-.914-2.484-2.13-2.87-.312-.102-1.163-.122-1.53-.04z" fill="#212121"/><path d="M16.258 21s.055 5.285.09 5.438c.136.582.527 1.136.965 1.375.402.218.726.285 1.332.285.863-.004 1.386-.211 2.027-.801L21 27v1h1.742l-.023-7H21s.023 4.348 0 4.5c-.102.61-.574 1.11-1.055 1.27-.285.097-.785.175-1.086.128-.308-.05-.828-.39-.859-.898v-4.977z" fill="#212121"/><path d="M30.742 28s-.055-5.285-.09-5.438c-.136-.582-.527-1.136-.965-1.375-.402-.218-.726-.285-1.332-.285-.863.004-1.386.211-2.027.801L26 22v-1h-1.742l.023 7H26s-.023-4.348 0-4.5c.102-.61.574-1.11 1.055-1.27.285-.097.66-.171 1.086-.128.425.046.89.433.859.898v4.977z" fill="#212121"/><path d="M40 20.5V22l6 2-6 2.602V28l7-3v-2z" fill-rule="evenodd" fill="#77B539"/></g><metadata><rdf:RDF xmlns:rdf="http://www.w3.org/1999/02/22-rdf-syntax-ns#" xmlns:rdfs="http://www.w3.org/2000/01/rdf-schema#" xmlns:dc="http://purl.org/dc/elements/1.1/"><rdf:Description about="https://iconscout.com/legal#licenses" dc:title="splunk" dc:description="splunk" dc:publisher="Iconscout" dc:date="2017-12-15" dc:format="image/svg+xml" dc:language="en"><dc:creator><rdf:Bag><rdf:li>Icons8</rdf:li></rdf:Bag></dc:creator></rdf:Description></rdf:RDF></metadata></svg>